<?xml version="1.0" encoding="utf-8"?>
<svg xmlns="http://www.w3.org/2000/svg">
    <defs>
        <symbol id="rect" viewBox="0 0 12 12">
            <rect x="1" y="3" width="10" height="6" fill="none" stroke="black" />
        </symbol>
        <symbol id="roundrect" viewBox="0 0 12 12">
            <rect x="1" y="3" width="10" height="6" rx="1" fill="none" stroke="black" />
        </symbol>
        <symbol id="rhomb" viewBox="0 0 12 12">
            <path d="M 2 6 L 6 2 L 10 6 L 6 10 z" stroke="black" fill="none" />
        </symbol>
        <symbol id="circle" viewBox="0 0 12 12">
            <circle cx="6" cy="6" r="4" fill="none" stroke="black" />
        </symbol>
        <symbol id="ellipse" viewBox="-1 -1 14 14">
            <ellipse cx="6" cy="6" rx="6" ry="3" fill="none" stroke="black" />
        </symbol>

        <symbol id="undo" viewBox="-1 -1 26 26">
            <path d="M17.026 22.957c10.957-11.421-2.326-20.865-10.384-13.309l2.464 2.352h-9.106v-8.947l2.232 2.229c14.794-13.203 31.51 7.051 14.794 17.675z" stroke="black" fill="none" />
        </symbol>
        <symbol id="redo" viewBox="-1 -1 26 26">
            <path d="M6.974 22.957c-10.957-11.421 2.326-20.865 10.384-13.309l-2.464 2.352h9.106v-8.947l-2.232 2.229c-14.794-13.203-31.51 7.051-14.794 17.675z" stroke="black" fill="none" />
        </symbol>
    </defs>
</svg>
